<?xml version="1.0" encoding="UTF-8"?>
<svg version="1.1" xmlns="http://www.w3.org/2000/svg" width="1127" height="686">
<path d="M0 0 C18.72571316 17.40906146 28.61864919 39.59156572 29.80029297 65.19384766 C30.77367253 99.15472473 18.26578099 134.2900627 -5.08789062 159.03930664 C-17.44112243 171.72837084 -31.49599815 179.95816659 -49.5625 180.7109375 C-67.50293631 180.27816382 -83.81286994 171.31870433 -96.125 158.625 C-103.54180073 150.29226906 -109.53459497 140.57268461 -112.125 129.625 C-111.35591309 129.32432617 -111.35591309 129.32432617 -110.57128906 129.01757812 C-82.4345577 117.90401025 -62.18093074 100.07196742 -49.125 72.625 C-44.2517939 60.53621801 -40.51971894 43.84169687 -45.8125 31.25 C-49.89074229 24.07399876 -55.77112629 20.12442349 -63.59375 17.93359375 C-93.74758368 11.5924199 -124.08362945 26.04013091 -148.97265625 41.87109375 C-154.97021378 45.79030335 -160.58203963 50.09243806 -166.125 54.625 C-167.09824219 55.39457031 -168.07148438 56.16414063 -169.07421875 56.95703125 C-176.41954875 62.92922658 -183.16073544 69.45475378 -189.875 76.125 C-190.75027344 76.9910083 -191.62554687 77.8570166 -192.52734375 78.74926758 C-198.48237477 84.73301518 -203.88680168 91.00891433 -209.125 97.625 C-209.72618652 98.37217285 -210.32737305 99.1193457 -210.94677734 99.88916016 C-223.79876202 115.89777264 -235.07190491 132.73170438 -245.125 150.625 C-245.52928223 151.33640137 -245.93356445 152.04780273 -246.35009766 152.78076172 C-265.69814695 187.08271355 -277.2302407 225.64990725 -282.125 264.625 C-282.25777344 265.66140625 -282.39054687 266.6978125 -282.52734375 267.765625 C-286.0204579 301.26124018 -282.19144605 338.9562422 -261.03515625 366.30859375 C-260.40480469 367.07300781 -259.77445313 367.83742188 -259.125 368.625 C-258.60808594 369.25535156 -258.09117187 369.88570313 -257.55859375 370.53515625 C-245.36592711 383.95014536 -226.84818129 390.74962533 -209.14453125 391.87890625 C-178.51179751 393.0049587 -151.34080552 380.66822613 -128.5 360.875 C-115.14229231 348.13094224 -110.03116102 335.6929793 -104.5 318.3125 C-103.7770944 316.10664876 -103.05185067 313.90156234 -102.32421875 311.69726562 C-100.56411532 306.34835488 -98.83302033 300.9907547 -97.125 295.625 C-110.45757972 295.25841499 -123.79060977 294.9190551 -137.125 294.625 C-138.31335449 294.59873535 -139.50170898 294.5724707 -140.72607422 294.54541016 C-153.11358931 294.3061268 -165.25583515 295.04916792 -177.57568359 296.35498047 C-180.30598734 296.64416989 -183.03748398 296.91920966 -185.76953125 297.19140625 C-186.60460205 297.27463135 -187.43967285 297.35785645 -188.30004883 297.44360352 C-189.20339966 297.53339478 -189.20339966 297.53339478 -190.125 297.625 C-190.91529535 281.81909291 -184.55896065 266.8162803 -174.33984375 254.87109375 C-160.65368906 240.99183635 -141.62908155 236.53562379 -122.66477966 236.26423645 C-119.66993559 236.24477086 -116.67618155 236.26262153 -113.68139648 236.28442383 C-112.01388566 236.28527289 -110.34637371 236.28478953 -108.67886353 236.28309631 C-104.21090271 236.28224581 -99.74319022 236.29971577 -95.27528644 236.32081819 C-90.58417741 236.33974516 -85.89306087 236.34134791 -81.20191956 236.34489441 C-72.34489819 236.35416831 -63.48798971 236.37871812 -54.63101774 236.40894288 C-44.53651475 236.44263302 -34.44200597 236.45900941 -24.34746063 236.47402918 C-3.60657774 236.50527256 17.13420398 236.55794111 37.875 236.625 C37.08373587 237.9175481 36.28905229 239.20800334 35.49291992 240.49755859 C35.05074631 241.21640228 34.60857269 241.93524597 34.15299988 242.6758728 C32.7174635 244.86526503 31.14983353 246.52178436 29.1875 248.25 C5.45774272 271.17687076 -4.66853454 306.17375589 -14.57579041 336.61693573 C-16.59081638 342.79312535 -18.63532967 348.9596867 -20.67351913 355.12826157 C-21.42946385 357.41718259 -22.18418792 359.70650339 -22.93875122 361.99588013 C-26.80132088 373.70509005 -30.78052402 385.36970693 -34.875 397 C-35.44697143 398.62791868 -36.01891157 400.25584836 -36.59082031 401.88378906 C-37.46380489 404.36727064 -38.33719657 406.85060666 -39.21151733 409.33361816 C-43.03285374 420.1906378 -46.81759776 431.06040315 -50.58815193 441.93514824 C-51.67789741 445.0778823 -52.76993993 448.21976934 -53.86535645 451.36053467 C-55.07990221 454.84304682 -56.28867718 458.32751082 -57.49609375 461.8125 C-57.86401535 462.86337799 -58.23193695 463.91425598 -58.61100769 464.99697876 C-58.94361099 465.96090546 -59.27621429 466.92483215 -59.61889648 467.91796875 C-59.91118637 468.7586792 -60.20347626 469.59938965 -60.50462341 470.46557617 C-61.26305962 472.73109992 -61.26305962 472.73109992 -61.125 475.625 C-59.67770508 475.85050537 -59.67770508 475.85050537 -58.20117188 476.08056641 C-13.73274753 483.05354514 32.08593413 493.04908534 68.875 520.625 C65.21286601 524.41743464 61.37787857 527.78717239 57.25 531.0625 C56.61408936 531.56821533 55.97817871 532.07393066 55.32299805 532.5949707 C49.84248265 536.91989642 44.28450584 541.13972746 38.6875 545.3125 C37.87394043 545.92472412 37.06038086 546.53694824 36.22216797 547.16772461 C35.45404785 547.73499268 34.68592773 548.30226074 33.89453125 548.88671875 C33.21495361 549.39162842 32.53537598 549.89653809 31.83520508 550.41674805 C29.80816534 551.66619626 28.22818899 552.29225093 25.875 552.625 C24.296875 551.54296875 24.296875 551.54296875 22.625 549.8125 C-0.98599344 527.86302091 -41.30777656 513.83024999 -73 512 C-73.86367188 511.92523437 -74.72734375 511.85046875 -75.6171875 511.7734375 C-79.82430315 513.20202194 -81.13208807 516.8397996 -83.125 520.625 C-83.5257373 521.38006836 -83.92647461 522.13513672 -84.33935547 522.91308594 C-85.61924665 525.37068137 -86.87192158 527.84113793 -88.125 530.3125 C-96.15784375 545.87249797 -105.1478977 560.94961557 -116.125 574.625 C-116.82753906 575.51832031 -117.53007812 576.41164063 -118.25390625 577.33203125 C-147.60516444 614.03423067 -186.39368286 639.04747913 -233.5625 644.3125 C-260.70982134 646.27791693 -295.36331531 644.97732414 -317.05029297 626.7175293 C-328.38468488 616.60444008 -334.16624861 603.61608128 -335.28125 588.5078125 C-336.06922308 568.48016339 -327.67526193 550.23532638 -314.75 535.4375 C-313.22659678 533.81597928 -311.68504061 532.21130392 -310.125 530.625 C-309.40054688 529.88765625 -308.67609375 529.1503125 -307.9296875 528.390625 C-289.21109788 510.49692238 -263.36016764 498.82687852 -239.125 490.625 C-237.9184375 490.21193604 -237.9184375 490.21193604 -236.6875 489.79052734 C-218.96646899 483.82478253 -200.61038848 480.61863456 -182.125 478.0625 C-172.31525765 476.67339025 -162.69956451 474.68686959 -156.125 466.625 C-152.27283617 460.21208543 -150.21845481 453.03739693 -148.08081055 445.91650391 C-145.79587594 438.34805175 -142.97686703 430.99477323 -140.125 423.625 C-140.60106689 423.91109131 -141.07713379 424.19718262 -141.56762695 424.49194336 C-185.87377229 450.97833577 -233.00496528 463.26293557 -284.29418945 451.03271484 C-312.58802914 443.80736854 -336.98623721 431.96953182 -358.125 411.625 C-358.83140625 410.99335938 -359.5378125 410.36171875 -360.265625 409.7109375 C-389.65077124 382.59537572 -399.43688332 336.81905146 -401.21936035 298.60186768 C-404.4606665 212.95425938 -369.58568265 132.0718831 -313.125 68.625 C-312.43905762 67.8522876 -312.43905762 67.8522876 -311.73925781 67.06396484 C-302.1201418 56.27795103 -292.183093 45.74064605 -280.8203125 36.7734375 C-279.05097317 35.36309455 -277.31443245 33.91038749 -275.6171875 32.4140625 C-259.08182666 17.90343972 -239.70852773 6.49661326 -220.125 -3.375 C-219.34366699 -3.77235352 -218.56233398 -4.16970703 -217.75732422 -4.57910156 C-190.50060753 -18.2219736 -159.43568788 -27.36493169 -129.125 -30.375 C-128.02929688 -30.48585938 -126.93359375 -30.59671875 -125.8046875 -30.7109375 C-83.14247144 -34.37335512 -33.37108396 -29.17441734 0 0 Z M-175.125 508.625 C-214.60636554 516.18222599 -262.65086118 527.28798371 -288.125 561.625 C-291.97630175 568.13332964 -294.75573824 573.92999345 -294.125 581.625 C-292.23063002 587.42718462 -289.63171697 590.76150717 -284.125 593.625 C-272.31615338 598.40394673 -257.60030149 596.26201173 -246.125 591.625 C-236.85542747 587.48820546 -228.74224143 582.36332896 -221.125 575.625 C-220.27164063 574.89152344 -219.41828125 574.15804687 -218.5390625 573.40234375 C-203.90681846 560.59363763 -192.55550123 544.54648326 -183.125 527.625 C-182.70492676 526.87379883 -182.28485352 526.12259766 -181.85205078 525.34863281 C-180.55404573 523.01058737 -179.2731292 520.66417317 -178 518.3125 C-177.59692627 517.57652588 -177.19385254 516.84055176 -176.77856445 516.08227539 C-175.83033044 514.29556739 -174.96887873 512.46329864 -174.125 510.625 C-174.62 509.635 -174.62 509.635 -175.125 508.625 Z " fill="#03459B" transform="translate(409.125,33.375)"/>
<path d="M0 0 C2.61864906 2.61864906 3.52922527 5.5851507 4.80078125 8.98828125 C5.20920006 10.06335182 5.20920006 10.06335182 5.62586975 11.16014099 C6.52789862 13.54187047 7.42084926 15.9268672 8.3125 18.3125 C8.62334534 19.14019897 8.93419067 19.96789795 9.25445557 20.82067871 C25.94991048 65.29858877 40.66689015 110.43259798 54.5 155.875 C54.87942749 157.11810944 55.25885498 158.36121887 55.64978027 159.64199829 C56.71959073 163.15302517 57.78300357 166.66591294 58.84375 170.1796875 C59.16478699 171.23354141 59.48582397 172.28739532 59.81658936 173.3731842 C60.10592346 174.33784103 60.39525757 175.30249786 60.69335938 176.29638672 C61.07397522 177.55695389 61.07397522 177.55695389 61.46228027 178.84298706 C62 181 62 181 62 184 C57.2250125 182.54618107 52.8523348 180.55806494 48.4140625 178.3046875 C47.71227875 177.95238068 47.010495 177.60007385 46.28744507 177.23709106 C44.06470966 176.12016304 41.84483451 174.99768046 39.625 173.875 C38.11086316 173.11291144 36.59654204 172.35118888 35.08203125 171.58984375 C31.38587569 169.73078965 27.6922735 167.86675157 24 166 C23.75467529 166.77674072 23.50935059 167.55348145 23.2565918 168.35375977 C-0.86562893 244.49665508 -31.08689315 320.04305551 -86.44140625 379.25390625 C-88.90649808 381.89964603 -91.29917 384.59756077 -93.6875 387.3125 C-97.53235803 391.58531926 -101.59219843 395.3229035 -106 399 C-106.83660156 399.74765625 -107.67320312 400.4953125 -108.53515625 401.265625 C-132.91212354 422.59128001 -164.09092294 434.67894757 -196.6328125 432.7890625 C-213.54312991 431.4332764 -228.44060831 426.53055432 -240.41015625 413.94140625 C-245.52116035 407.70020468 -248.95341595 400.41932822 -252 393 C-252.83660156 393.81082031 -253.67320312 394.62164062 -254.53515625 395.45703125 C-278.44453066 418.32414871 -304.61233116 433.59817851 -338.43505859 433.421875 C-356.51722119 432.9678045 -372.30612686 427.20074654 -385 414 C-395.70188694 402.65014725 -399.21480477 387.81916635 -399.08276367 372.55493164 C-398.68238735 360.1952319 -395.66887475 348.04600066 -392.578125 336.1328125 C-392.40793098 335.47460447 -392.23773697 334.81639645 -392.06238556 334.13824272 C-387.68930333 317.29092607 -382.60428756 300.66049078 -377.50318146 284.02236938 C-376.22279887 279.84067597 -374.95024838 275.65660112 -373.67724609 271.47265625 C-371.9236127 265.71068057 -370.16831903 259.94921832 -368.41019249 254.18861198 C-365.0367158 243.13408657 -361.69171243 232.07116761 -358.37414551 220.99972534 C-357.646129 218.5705026 -356.91642877 216.14179052 -356.18652344 213.71313477 C-355.76224624 212.29837689 -355.33808323 210.88358476 -354.9140625 209.46875 C-354.5629541 208.29763672 -354.2118457 207.12652344 -353.85009766 205.91992188 C-351.25100075 196.99252412 -350.17738272 188.45564712 -354.8125 180 C-355.85082668 178.31816715 -356.9127903 176.65065414 -358 175 C-359.00411939 173.3358119 -360.00467616 171.66946346 -361 170 C-356.77248028 169.03430677 -352.54270662 168.07884837 -348.3125 167.125 C-347.13365234 166.85558594 -345.95480469 166.58617187 -344.74023438 166.30859375 C-332.28795129 163.51109454 -320.34798452 161.62331124 -307.5625 161.6875 C-306.38179932 161.69313965 -305.20109863 161.6987793 -303.98461914 161.70458984 C-291.75354324 161.87501664 -279.73396176 162.71539651 -270 171 C-262.95603705 179.32068123 -260.89518795 187.46721431 -261.66137695 198.20347595 C-262.31064974 203.56550606 -263.7803705 208.71063888 -265.20703125 213.91015625 C-265.37797995 214.54190262 -265.54892864 215.17364899 -265.7250576 215.82453918 C-270.767203 234.42806622 -276.64398899 252.79102863 -282.42431641 271.17486572 C-287.04682419 285.87813798 -291.64343186 300.58907146 -296.17450714 315.32080078 C-297.00282571 318.00917106 -297.83588049 320.69604227 -298.66937256 323.3828125 C-300.00760668 327.70594478 -301.32198431 332.03571923 -302.6196804 336.3711853 C-303.1002424 337.96566975 -303.58768263 339.5581018 -304.08288002 341.14810181 C-309.31822946 357.48201852 -309.31822946 357.48201852 -306.60295105 373.80395508 C-304.56782854 376.59207543 -303.23709698 377.73330988 -300 379 C-291.25362639 379.77226707 -282.95842468 375.05621962 -276.2578125 369.8828125 C-273.73948673 367.67066616 -271.35335794 365.38621459 -269 363 C-268.06220703 362.07767578 -268.06220703 362.07767578 -267.10546875 361.13671875 C-252.85982657 346.11930363 -246.97466451 324.48857266 -240.9375 305.25 C-240.25816627 303.10297505 -239.57813352 300.95617118 -238.89746094 298.80957031 C-237.41209165 294.12272176 -235.93045235 289.43471334 -234.45068359 284.74609375 C-232.02968844 277.08362001 -229.58772636 269.42791766 -227.14204597 261.77329254 C-225.71449558 257.30479284 -224.28839466 252.8358303 -222.86211681 248.36692429 C-221.69661212 244.71518725 -220.53074178 241.06356805 -219.36398315 237.41223145 C-218.25571401 233.94328046 -217.14969889 230.47361764 -216.04520226 227.00346375 C-215.44700347 225.12575183 -214.84669392 223.24871276 -214.24629211 221.3717041 C-206.47420626 200.02237539 -206.47420626 200.02237539 -208 178 C-209.29788956 175.97681922 -210.62464661 173.97133986 -212 172 C-212.25 169.125 -212.25 169.125 -212 167 C-208.94975962 165.47487981 -205.68359692 165.51762516 -202.328125 165.24609375 C-201.15503784 165.14785812 -201.15503784 165.14785812 -199.95825195 165.04763794 C-184.73773163 163.79817268 -169.52587601 162.69627621 -154.25 162.5625 C-153.06438477 162.54050537 -151.87876953 162.51851074 -150.65722656 162.49584961 C-140.96568539 162.51887155 -131.62833807 164.38437193 -124.43359375 171.3203125 C-118.96385469 177.72899859 -117.71141674 184.70958824 -118 193 C-118.47520873 195.76412881 -119.00111958 198.44808594 -119.63256836 201.17480469 C-119.89940005 202.34668901 -119.89940005 202.34668901 -120.17162228 203.54224777 C-122.32963965 212.7594705 -125.08906017 221.78651821 -127.87890625 230.828125 C-128.45118647 232.70048291 -129.02299818 234.57298407 -129.59437561 236.44561768 C-136.53456415 259.14765392 -143.62553325 281.80415904 -150.72583008 304.45654297 C-158.63504922 329.48111833 -158.63504922 329.48111833 -165.87890625 354.703125 C-166.12358139 355.57982849 -166.36825653 356.45653198 -166.62034607 357.35980225 C-168.14409181 363.24613969 -168.33702132 368.05855311 -165.75 373.75 C-162.72595315 377.63806023 -159.58329791 379.08767533 -154.8125 379.9375 C-147.66185857 380.43227255 -142.25613947 377.99478552 -136.828125 373.4453125 C-133.41663046 370.43111231 -130.193158 367.2426252 -127 364 C-126.10925781 363.10796875 -125.21851563 362.2159375 -124.30078125 361.296875 C-101.11582831 336.98361195 -86.77904442 302.24211922 -76 271 C-75.63310059 269.94570801 -75.26620117 268.89141602 -74.88818359 267.80517578 C-65.34662908 240.10695708 -58.66251529 211.86234652 -53.4375 183.0625 C-53.1731868 181.60783325 -53.1731868 181.60783325 -52.90353394 180.1237793 C-52.40638288 177.36628251 -51.91764638 174.6074799 -51.43359375 171.84765625 C-51.28720459 171.02531998 -51.14081543 170.2029837 -50.98999023 169.35572815 C-50.33203931 165.52410642 -49.82027607 161.90544514 -50 158 C-51.89274658 158.40895508 -51.89274658 158.40895508 -53.82373047 158.82617188 C-58.49353387 159.83458564 -63.1639127 160.84031147 -67.83447266 161.84521484 C-69.85806899 162.28100137 -71.8815073 162.71752237 -73.90478516 163.15478516 C-76.80850924 163.78219443 -79.7127864 164.40698331 -82.6171875 165.03125 C-83.97975174 165.32654602 -83.97975174 165.32654602 -85.36984253 165.62780762 C-86.21056305 165.80799438 -87.05128357 165.98818115 -87.91748047 166.17382812 C-88.65916473 166.33371216 -89.400849 166.49359619 -90.16500854 166.6583252 C-92 167 -92 167 -94 167 C-92.72806359 164.27542704 -91.35552617 162.03765531 -89.41796875 159.7421875 C-88.90468018 159.12593506 -88.3913916 158.50968262 -87.86254883 157.87475586 C-87.30978271 157.21483643 -86.7570166 156.55491699 -86.1875 155.875 C-62.71437758 127.39892388 -43.19137895 95.3860949 -27.08789062 62.22460938 C-25.91369776 59.82352199 -24.71460165 57.43567581 -23.515625 55.046875 C-17.01736527 41.94082093 -11.5010325 28.55545208 -6.23950195 14.91821289 C-5.8376619 13.87712372 -5.8376619 13.87712372 -5.42770386 12.81500244 C-4.69722196 10.91736532 -3.97138293 9.01794284 -3.24584961 7.1184082 C-2.26528366 4.66401493 -1.23549363 2.33250494 0 0 Z " fill="#0555BB" transform="translate(1060,28)"/>
<path d="M0 0 C2.8125 2.5 2.8125 2.5 5 5 C5.680625 5.7425 6.36125 6.485 7.0625 7.25 C14.85521662 18.31063004 15.2438297 31.28899935 13.57421875 44.32421875 C10.43462657 58.75093373 1.95609826 71.60401339 -10.3125 79.8125 C-23.91517951 87.90523338 -39.24002159 91.96504057 -54.96484375 88.17578125 C-59.38460113 86.83841934 -63.1478121 85.56812526 -67 83 C-65 78 -65 78 -63.9375 75.8125 C-62.74616008 72.23848025 -62.78251147 68.90482747 -62.875 65.1875 C-62.88402344 64.49462891 -62.89304687 63.80175781 -62.90234375 63.08789062 C-62.92573843 61.39177605 -62.96160359 59.69584129 -63 58 C-71.21021034 55.06778202 -77.39489281 55.12313235 -85.40234375 58.6875 C-107.95621001 70.08313769 -119.41225858 89.91356682 -127.08349609 113.16577148 C-129.26126667 119.95328398 -131.35380219 126.76678552 -133.43719482 133.58369446 C-134.50098115 137.05641947 -135.57592812 140.52568345 -136.65039062 143.99511719 C-138.01048441 148.38846654 -139.37001616 152.78198185 -140.72549438 157.17675781 C-145.6090765 173.00687941 -150.57132893 188.81211632 -155.54244995 204.6149292 C-156.74433605 208.43597596 -157.94426653 212.25763323 -159.14345646 216.0795269 C-160.04840512 218.96311131 -160.95427627 221.84640532 -161.86038399 224.7296257 C-162.27777911 226.05826063 -162.69486082 227.38699406 -163.11158562 228.71583939 C-164.39704809 232.81400432 -165.69320235 236.90858921 -167 241 C-167.36150146 242.13409302 -167.72300293 243.26818604 -168.09545898 244.43664551 C-168.44423096 245.51039429 -168.79300293 246.58414307 -169.15234375 247.69042969 C-169.45906006 248.63875671 -169.76577637 249.58708374 -170.08178711 250.56414795 C-171.22723737 253.60281948 -172.62660988 255.77973182 -175 258 C-178.75145366 259.25048455 -182.23676084 259.13143947 -186.14331055 259.11352539 C-187.38754791 259.11374443 -187.38754791 259.11374443 -188.65692139 259.1139679 C-191.40021372 259.11327092 -194.14343827 259.10548853 -196.88671875 259.09765625 C-198.78815168 259.09579131 -200.68958509 259.09436776 -202.59101868 259.09336853 C-207.59694748 259.08954936 -212.6028473 259.07972416 -217.60876465 259.06866455 C-222.71638598 259.05843756 -227.824012 259.05386815 -232.93164062 259.04882812 C-242.95443982 259.03810138 -252.9772175 259.02103212 -263 259 C-261.92490305 253.94258591 -260.78124616 248.97276642 -259.19433594 244.04638672 C-258.84419434 242.95206329 -258.49405273 241.85773987 -258.13330078 240.73025513 C-257.75415527 239.55856781 -257.37500977 238.38688049 -256.984375 237.1796875 C-256.57655742 235.90849302 -256.16918081 234.63715701 -255.76220703 233.36569214 C-254.88762494 230.63505933 -254.01097757 227.90510251 -253.13269043 225.17565918 C-250.74349846 217.74843112 -248.37106465 210.31584383 -246 202.8828125 C-245.75363548 202.1107547 -245.50727097 201.3386969 -245.25344086 200.54324341 C-239.65067588 182.97689484 -234.18885298 165.36766391 -228.75 147.75 C-226.92112977 141.82665081 -225.09197491 135.90338987 -223.26171875 129.98046875 C-223.03974005 129.26201342 -222.81776134 128.54355808 -222.58905602 127.80333138 C-219.45008113 117.64709761 -216.28132982 107.50067198 -213.08203125 97.36328125 C-212.69459747 96.13562042 -212.3071637 94.90795959 -211.9079895 93.64309692 C-210.12335092 87.99266714 -208.33442458 82.34363069 -206.54003906 76.69628906 C-203.29956877 66.4771769 -200.13306942 56.2391095 -197.09765625 45.95703125 C-196.80226456 44.96671402 -196.50687286 43.97639679 -196.20252991 42.95606995 C-193.13572047 32.45836943 -191.04097719 22.30491975 -196 12 C-197.49349389 9.77871214 -199.05040497 7.72227742 -200.79296875 5.69140625 C-202 4 -202 4 -202 1 C-198.60601236 0.20028566 -195.20949959 -0.58818682 -191.8125 -1.375 C-190.40194336 -1.70757812 -190.40194336 -1.70757812 -188.96289062 -2.046875 C-176.84337784 -4.8405254 -165.06634871 -6.37345882 -152.63427734 -6.37060547 C-150.50147578 -6.37499696 -148.37072235 -6.41153274 -146.23828125 -6.44921875 C-135.32208735 -6.53967226 -124.90748323 -5.34263193 -116 1.5 C-107.67292739 9.78123551 -106.11442129 20.75598817 -105 32 C-103.65421875 30.69289063 -103.65421875 30.69289063 -102.28125 29.359375 C-76.81962771 4.93291827 -35.14838947 -24.4447647 0 0 Z " fill="#044DAA" transform="translate(672,197)"/>
</svg>
